<svg version="1.2" baseProfile="tiny-ps" xmlns="http://www.w3.org/2000/svg" viewBox="0 0 495 200" width="495" height="200">
	<title>Capturar</title>
	<style>
		tspan { white-space:pre }
		.shp0 { fill: #004c56 } 
	</style>
	<g id="Background">
		<path id="Path 1" class="shp0" d="M39.13 1.9C33.12 2.85 23.91 4.86 18.65 6.36C12.42 8.14 7.52 10.99 4.55 14.55C2.05 17.55 -0.01 21.84 -0.02 24.09C-0.03 26.34 1.97 32.27 4.44 37.27C7 42.45 15.03 52.38 23.12 60.35C30.92 68.04 42.63 78.45 49.14 83.49C55.64 88.53 61.58 92.67 62.33 92.69C63.08 92.71 61.24 89.86 58.24 86.36C55.23 82.86 51.14 76.73 49.14 72.73C47.13 68.73 45.5 63 45.5 60C45.5 57 46.93 52.11 48.68 49.12C50.43 46.14 54.73 42.09 58.24 40.13C61.74 38.16 71.16 34.8 79.16 32.65C91.76 29.28 100.33 28.62 142.86 27.8C179.94 27.08 201.15 27.59 229.3 29.89C249.82 31.56 280.53 34.48 297.55 36.37C314.56 38.25 348.14 42.32 372.16 45.41C396.18 48.5 416.66 50.74 417.66 50.38C418.66 50.03 412.52 48.35 404.01 46.64C395.5 44.94 373.39 40.65 354.87 37.12C336.35 33.59 307.28 28.28 290.27 25.32C273.25 22.36 242.54 17.47 222.02 14.45C201.5 11.44 170.38 7.34 152.87 5.35C135.35 3.35 105.05 1.37 85.53 0.94C66.02 0.52 45.13 0.95 39.13 1.9ZM76.52 101.74L76.43 143.64L101.91 143.64C101.91 109.82 102.53 100.03 103.28 100.06C104.03 100.09 108.53 105.82 113.29 112.79L121.93 125.45L151.05 125.45C160.22 112.3 164.69 106.37 166.91 103.79L170.95 99.09L171.07 143.64L196.54 143.64L196.54 61.82C183.15 61.78 177.41 61.37 175.16 60.88C171.67 60.13 168.58 63.35 154.23 82.66C144.97 95.12 136.99 105.3 136.49 105.28C135.99 105.26 128.15 95.27 119.07 83.08L102.56 60.91L76.6 59.84L76.52 101.74ZM328.64 62.73C328.05 64.23 328.19 82.23 328.94 102.73L330.3 140.01L424.03 140L424.03 120L362.15 120L362.15 60C333.19 60 329.47 60.59 328.64 62.73ZM242.04 65.47C236.54 67.51 228.83 71.41 224.92 74.13C221.01 76.86 215.93 81.95 213.63 85.45C211.33 88.95 208.88 95.09 208.19 99.09C207.21 104.81 207.87 108.28 211.3 115.31C213.69 120.24 218.11 126.3 221.11 128.79C224.11 131.27 230.67 135.17 235.67 137.44C240.68 139.71 250.09 142.51 256.6 143.66C265.46 145.22 272.08 145.22 282.99 143.67C291.93 142.4 301.41 139.64 307.56 136.51C313.06 133.7 317.56 130.43 317.56 129.23C317.56 128.03 312.78 124.44 306.93 121.25C296.99 115.84 295.91 115.62 290.55 117.95C287.39 119.32 281.12 121.26 276.62 122.27C270.68 123.59 266.18 123.47 260.24 121.83C255.38 120.48 249.64 117.06 246.14 113.42C241.22 108.32 240.39 106.27 241.2 101.36C241.74 98.11 243.99 93.59 246.2 91.31C248.42 89.03 254.32 85.87 259.33 84.29C267.01 81.86 270.13 81.75 279.35 83.59L290.27 85.77L313.92 72.05C295.5 63.7 290.58 62.88 272.98 62.37C255.39 61.86 250.45 62.35 242.04 65.47ZM434.49 113.64C438.74 118.14 443.45 124.27 444.95 127.27C446.46 130.27 447.65 136.2 447.61 140.45C447.55 146.74 446.45 149.21 441.7 153.7C438.48 156.73 430.94 161.12 424.94 163.45C418.93 165.79 405.42 169.32 394.91 171.3C378.6 174.38 366.45 174.99 312.1 175.45C277.07 175.75 236.13 175.28 221.11 174.41C206.1 173.54 173.75 171.13 149.23 169.07C124.71 167 98.09 164.94 90.08 164.49L75.52 163.66C96.68 167.82 122.89 171.92 147.41 175.46C171.93 179.01 205.1 183.48 221.11 185.41C237.13 187.34 266.61 190.55 286.63 192.56C306.65 194.56 340.22 197.17 361.24 198.35C390.38 199.99 406.16 200 427.67 198.4C443.18 197.24 460.38 195.08 465.88 193.6C471.39 192.12 478.76 189.39 482.26 187.55C485.76 185.7 490.19 181.41 492.09 178C495.02 172.77 495.24 170.84 493.5 165.45C492.37 161.95 488.4 155.41 484.69 150.91C480.98 146.41 472.98 138.46 466.91 133.25C460.84 128.03 449.94 119.65 442.68 114.61C435.42 109.58 428.87 105.45 428.12 105.45C427.37 105.45 430.24 109.14 434.49 113.64Z" />
		<path id="Path 1 copy" class="shp0" d="M39.13 1.9C33.12 2.85 23.91 4.86 18.65 6.36C12.42 8.14 7.52 10.99 4.55 14.55C2.05 17.55 -0.01 21.84 -0.02 24.09C-0.03 26.34 1.97 32.27 4.44 37.27C7 42.45 15.03 52.38 23.12 60.35C30.92 68.04 42.63 78.45 49.14 83.49C55.64 88.53 61.58 92.67 62.33 92.69C63.08 92.71 61.24 89.86 58.24 86.36C55.23 82.86 51.14 76.73 49.14 72.73C47.13 68.73 45.5 63 45.5 60C45.5 57 46.93 52.11 48.68 49.12C50.43 46.14 54.73 42.09 58.24 40.13C61.74 38.16 71.16 34.8 79.16 32.65C91.76 29.28 100.33 28.62 142.86 27.8C179.94 27.08 201.15 27.59 229.3 29.89C249.82 31.56 280.53 34.48 297.55 36.37C314.56 38.25 348.14 42.32 372.16 45.41C396.18 48.5 416.66 50.74 417.66 50.38C418.66 50.03 412.52 48.35 404.01 46.64C395.5 44.94 373.39 40.65 354.87 37.12C336.35 33.59 307.28 28.28 290.27 25.32C273.25 22.36 242.54 17.47 222.02 14.45C201.5 11.44 170.38 7.34 152.87 5.35C135.35 3.35 105.05 1.37 85.53 0.94C66.02 0.52 45.13 0.95 39.13 1.9ZM76.52 101.74L76.43 143.64L101.91 143.64C101.91 109.82 102.53 100.03 103.28 100.06C104.03 100.09 108.53 105.82 113.29 112.79L121.93 125.45L151.05 125.45C160.22 112.3 164.69 106.37 166.91 103.79L170.95 99.09L171.07 143.64L196.54 143.64L196.54 61.82C183.15 61.78 177.41 61.37 175.16 60.88C171.67 60.13 168.58 63.35 154.23 82.66C144.97 95.12 136.99 105.3 136.49 105.28C135.99 105.26 128.15 95.27 119.07 83.08L102.56 60.91L76.6 59.84L76.52 101.74ZM328.64 62.73C328.05 64.23 328.19 82.23 328.94 102.73L330.3 140.01L424.03 140L424.03 120L362.15 120L362.15 60C333.19 60 329.47 60.59 328.64 62.73ZM242.04 65.47C236.54 67.51 228.83 71.41 224.92 74.13C221.01 76.86 215.93 81.95 213.63 85.45C211.33 88.95 208.88 95.09 208.19 99.09C207.21 104.81 207.87 108.28 211.3 115.31C213.69 120.24 218.11 126.3 221.11 128.79C224.11 131.27 230.67 135.17 235.67 137.44C240.68 139.71 250.09 142.51 256.6 143.66C265.46 145.22 272.08 145.22 282.99 143.67C291.93 142.4 301.41 139.64 307.56 136.51C313.06 133.7 317.56 130.43 317.56 129.23C317.56 128.03 312.78 124.44 306.93 121.25C296.99 115.84 295.91 115.62 290.55 117.95C287.39 119.32 281.12 121.26 276.62 122.27C270.68 123.59 266.18 123.47 260.24 121.83C255.38 120.48 249.64 117.06 246.14 113.42C241.22 108.32 240.39 106.27 241.2 101.36C241.74 98.11 243.99 93.59 246.2 91.31C248.42 89.03 254.32 85.87 259.33 84.29C267.01 81.86 270.13 81.75 279.35 83.59L290.27 85.77L313.92 72.05C295.5 63.7 290.58 62.88 272.98 62.37C255.39 61.86 250.45 62.35 242.04 65.47ZM434.49 113.64C438.74 118.14 443.45 124.27 444.95 127.27C446.46 130.27 447.65 136.2 447.61 140.45C447.55 146.74 446.45 149.21 441.7 153.7C438.48 156.73 430.94 161.12 424.94 163.45C418.93 165.79 405.42 169.32 394.91 171.3C378.6 174.38 366.45 174.99 312.1 175.45C277.07 175.75 236.13 175.28 221.11 174.41C206.1 173.54 173.75 171.13 149.23 169.07C124.71 167 98.09 164.94 90.08 164.49L75.52 163.66C96.68 167.82 122.89 171.92 147.41 175.46C171.93 179.01 205.1 183.48 221.11 185.41C237.13 187.34 266.61 190.55 286.63 192.56C306.65 194.56 340.22 197.17 361.24 198.35C390.38 199.99 406.16 200 427.67 198.4C443.18 197.24 460.38 195.08 465.88 193.6C471.39 192.12 478.76 189.39 482.26 187.55C485.76 185.7 490.19 181.41 492.09 178C495.02 172.77 495.24 170.84 493.5 165.45C492.37 161.95 488.4 155.41 484.69 150.91C480.98 146.41 472.98 138.46 466.91 133.25C460.84 128.03 449.94 119.65 442.68 114.61C435.42 109.58 428.87 105.45 428.12 105.45C427.37 105.45 430.24 109.14 434.49 113.64Z" />
	</g>
</svg>