<svg xmlns="http://www.w3.org/2000/svg" xmlns:svgjs="http://svgjs.com/svgjs" xmlns:xlink="http://www.w3.org/1999/xlink" width="288" height="288"><svg xmlns="http://www.w3.org/2000/svg" width="288" height="288" viewBox="0 0 48 48"><path fill="#f4841a" d="M48 24c0 13.3-10.8 24-24 24S0 37.2 0 24 10.8 0 24 0s24 10.8 24 24z" class="color000 svgShape"/><path fill="#fff" d="M36 33H14c-.3 0-.5-.2-.5-.5s.2-.5.5-.5h22c.3 0 .5.2.5.5s-.2.5-.5.5zM30 25.5h-2.1c-.3 0-.5-.2-.5-.5s.2-.5.5-.5H30c.3 0 .5.2.5.5s-.2.5-.5.5zM32 20c-.3 0-.5-.2-.5-.5s.2-.5.5-.5h4c.3 0 .5.2.5.5s-.2.5-.5.5h-4zM18 20h-4c-.3 0-.5-.2-.5-.5s.2-.5.5-.5h4c.3 0 .5.2.5.5s-.2.5-.5.5z" class="colorfff svgShape"/><path fill="#fff" d="M34.1 35H15.9c-.8 0-1.5-.3-1.9-.9-.5-.6-.7-1.3-.5-2.1l1.3-6.5c.2-.9.8-1.6 1.7-1.9l.5-.2c.6-.2 1-.8 1-1.4v-3.6c0-.8.7-1.5 1.5-1.5h11c.8 0 1.5.7 1.5 1.5V22c0 .6.4 1.2 1 1.4l.5.2c.8.3 1.5 1 1.7 1.9l1.3 6.5c.1.7 0 1.5-.5 2.1-.5.6-1.2.9-1.9.9zM19.5 18c-.3 0-.5.2-.5.5v3.6c0 1.1-.7 2-1.7 2.4l-.5.2c-.5.2-.9.6-1 1.1l-1.3 6.5c-.1.4 0 .9.3 1.2s.7.5 1.2.5h18.1c.5 0 .9-.2 1.2-.5s.4-.8.3-1.2l-1.3-6.5c-.1-.5-.5-1-1-1.1l-.5-.2c-1-.3-1.7-1.3-1.7-2.4v-3.6c0-.3-.2-.5-.5-.5H19.5z" class="colorfff svgShape"/><path fill="#fff" d="M25 30c-2.8 0-5-2.2-5-5s2.2-5 5-5 5 2.2 5 5-2.2 5-5 5zm0-9c-2.2 0-4 1.8-4 4s1.8 4 4 4 4-1.8 4-4-1.8-4-4-4z" class="colorfff svgShape"/><path fill="#fff" d="M25 28c-1.7 0-3-1.3-3-3s1.3-3 3-3 3 1.3 3 3-1.3 3-3 3zm0-5c-1.1 0-2 .9-2 2s.9 2 2 2 2-.9 2-2-.9-2-2-2z" class="colorfff svgShape"/><path fill="#fff" d="M35.5 23h-3.2c-.5 0-1-.2-1.2-.7-.1 0-.1-.1-.1-.2v-3.6c0-.3-.2-.5-.5-.5h-11c-.3 0-.5.2-.5.5v3.6c0 .1 0 .2-.1.3-.3.4-.7.7-1.2.7h-3.2c-.8 0-1.5-.7-1.5-1.5v-2.7c0-1.6.8-3.1 2.2-3.9 2.1-1.2 4.5-1.9 6.9-1.9H28c2.4 0 4.8.7 6.9 1.9 1.3.8 2.2 2.3 2.2 3.9v2.7c-.1.7-.8 1.4-1.6 1.4zM32 21.9c.1.1.2.1.3.1h3.2c.3 0 .5-.2.5-.5v-2.7c0-1.2-.7-2.4-1.7-3-1.9-1.2-4.1-1.8-6.4-1.8H22c-2.2 0-4.4.6-6.4 1.8-1 .6-1.7 1.8-1.7 3v2.7c0 .3.2.5.5.5h3.2c.1 0 .2 0 .3-.1v-3.4c0-.8.7-1.5 1.5-1.5h11c.8 0 1.5.7 1.5 1.5v3.4zM11.5 30c-.8 0-1.5-.7-1.5-1.5s.7-1.5 1.5-1.5c.3 0 .5.2.5.5s-.2.5-.5.5-.5.2-.5.5.2.5.5.5.5.2.5.5-.2.5-.5.5z" class="colorfff svgShape"/><path fill="#fff" d="M11.5 32c-.8 0-1.5-.7-1.5-1.5s.7-1.5 1.5-1.5c.3 0 .5.2.5.5s-.2.5-.5.5-.5.2-.5.5.2.5.5.5.5.2.5.5-.2.5-.5.5zM11.5 28c-.8 0-1.5-.7-1.5-1.5s.7-1.5 1.5-1.5c.3 0 .5.2.5.5s-.2.5-.5.5-.5.2-.5.5.2.5.5.5.5.2.5.5-.2.5-.5.5z" class="colorfff svgShape"/><path fill="#fff" d="M11.5 26c-.8 0-1.5-.7-1.5-1.5s.7-1.5 1.5-1.5c.3 0 .5.2.5.5s-.2.5-.5.5-.5.2-.5.5.2.5.5.5.5.2.5.5-.2.5-.5.5z" class="colorfff svgShape"/><path fill="#fff" d="M11.5 24c-.3 0-.5-.2-.5-.5v-1c0-.8.7-1.5 1.5-1.5h1c.3 0 .5.2.5.5s-.2.5-.5.5h-1c-.3 0-.5.2-.5.5v1c0 .3-.2.5-.5.5z" class="colorfff svgShape"/></svg></svg>